HIERARCHY
ROOT Hips
{
	OFFSET 0.00000 0.00000 0.00000
	CHANNELS 6 Xposition Yposition Zposition Yrotation Zrotation Xrotation 
	JOINT Lumbar
	{
		OFFSET 0 0 0
		CHANNELS 3 Zrotation Xrotation Yrotation
		JOINT Neck
		{
			OFFSET 0.00 0.2701 0.00
			CHANNELS 3 Zrotation Xrotation Yrotation
			End Site
			{
				OFFSET 0.00 0.1379 0.00
			}
		}
		JOINT RightShoulder
		{
			OFFSET 0.0119 0.2289 0.1181
			CHANNELS 3 Zrotation Xrotation Yrotation
			JOINT RightElbow
			{
				OFFSET 0.00 -0.1475 0.00
				CHANNELS 2 Zrotation Yrotation
				JOINT RightWrist
				{
					OFFSET 0.00 -0.1605 0.00
					CHANNELS 2 Zrotation Xrotation
					End Site
					{
						OFFSET 0.0040 -0.1068 0.0006
					}
				}
			}
		}
		JOINT LeftShoulder
		{
			OFFSET 0.0119 0.2289 -0.1181
			CHANNELS 3 Zrotation Xrotation Yrotation
			JOINT LeftElbow
			{
				OFFSET 0.00 -0.1475 0.00
				CHANNELS 2 Zrotation Yrotation
				JOINT LeftWrist
				{
					OFFSET 0.00 -0.1605 0.00
					CHANNELS 2 Zrotation Xrotation
					End Site
					{
						OFFSET 0.0040 -0.1068 -0.0006
					}
				}
			}
		}
	}
	JOINT RightHip
	{
		OFFSET 0.0316 -0.0424 0.0458
		CHANNELS 3 Zrotation Xrotation Yrotation
		JOINT RightKnee
		{
			OFFSET 0.00 -0.2438 0.00
			CHANNELS 1 Zrotation
			JOINT RightAnkle
			{
				OFFSET 0.00 -0.2449 0.00
				CHANNELS 3 Zrotation Xrotation Yrotation
				End Site
				{
					OFFSET 0.1237 -0.0542 0.0051
				}
			}
		}
	}
	JOINT LeftHip
	{
		OFFSET 0.0316 -0.0424 -0.0458
		CHANNELS 3 Zrotation Xrotation Yrotation
		JOINT LeftKnee
		{
			OFFSET 0.00 -0.2438 0.00
			CHANNELS 1 Zrotation
			JOINT LeftAnkle
			{
				OFFSET 0.00 -0.2449 0.00
				CHANNELS 3 Zrotation Xrotation Yrotation
				End Site
				{
					OFFSET 0.1237 -0.0542 -0.0051
				}
			}
		}
	}
}
MOTION
Frames: 14
Frame Time: 0.02
0.33163 0.35592 0.00294 181.02984 0 -4.93888 -3.07965 5.04959 -9.63832 -53.99826 13.82004 23.46291 102.64328 -67.99204 49.57301 123.3084 116.5727 18.86068 3.68376 63.38039 -13.82226 -50.45676 68.3249 -119.37643 -48.97095 7.20155 68.82 -5.94368 -14.27263 -80.29578 -3.07485 -2.26954 -16.99124 69.58633 15.01658 8.9814 -88.20722 12.14784 7.73376 17.01337
0.3317 0.35574 0.00305 181.05294 0 -5.17067 -3.03129 5.048 -9.19967 -54.44713 14.13205 23.54731 102.57214 -69.05028 49.03685 123.25875 103.58232 22.41596 2.39066 64.2763 -14.18273 -51.14949 67.53924 -118.82038 -49.53217 7.09097 68.732 -5.98492 -14.61932 -80.23559 -3.06637 -2.28527 -16.96143 69.74633 15.09196 8.75701 -88.33076 12.19131 7.77567 17.01004
0.33162 0.35549 0.00319 181.07083 0 -5.44511 -2.937 5.08873 -8.61287 -55.04101 14.5724 23.71232 102.59937 -70.45705 48.70051 122.86639 89.42198 23.7656 -0.72604 65.55572 -14.60148 -51.96271 66.52865 -118.2537 -50.53252 6.9601 68.63155 -6.03151 -15.02548 -80.19829 -3.03545 -2.3091 -16.92193 69.93499 15.18716 8.48643 -88.50909 12.24387 7.8224 17.00879
0.33159 0.35528 0.00334 181.08087 0 -5.69961 -2.86653 5.11218 -8.11428 -55.55639 14.94433 23.83298 102.57223 -71.64848 48.28086 122.64108 76.16305 26.05077 -2.91324 66.61213 -14.96938 -52.67449 65.6761 -117.71019 -51.25111 6.84496 68.53807 -6.06857 -15.40028 -80.14851 -3.01702 -2.32958 -16.88478 70.10856 15.27989 8.24018 -88.66429 12.2934 7.86737 17.007
0.3316 0.35506 0.00342 181.13365 0 -5.95818 -2.78465 5.12952 -7.52717 -56.12148 15.35665 23.9819 102.56656 -73.08313 47.81788 122.36867 61.2361 28.671 -5.49026 67.87334 -15.43283 -53.57569 64.59806 -117.09 -52.30266 6.70324 68.43821 -6.13627 -15.79655 -80.10725 -2.98826 -2.34903 -16.85607 70.29198 15.34568 7.97793 -88.81348 12.33831 7.91047 17.00357
0.33151 0.35485 0.00364 181.09661 0 -6.21773 -2.71521 5.16899 -7.08952 -56.6176 15.71538 24.09319 102.55159 -74.09387 47.49753 122.11169 49.57109 30.05601 -7.69567 68.80098 -15.71535 -54.11716 63.92829 -116.62654 -52.77954 6.61127 68.34887 -6.14162 -16.16114 -80.05376 -2.97588 -2.37245 -16.80727 70.46123 15.47134 7.73846 -88.98747 12.3946 7.95826 17.00405
0.33121 0.3547 0.00423 180.80948 0 -6.46994 -2.69173 5.25701 -7.09958 -56.90212 15.90446 24.07555 102.42697 -73.83783 47.51659 121.9944 46.88664 28.48713 -8.51218 68.69341 -15.46584 -53.59517 64.49183 -116.60085 -51.44823 6.66712 68.29321 -5.96807 -16.42218 -79.96108 -3.01495 -2.40423 -16.70909 70.58471 15.76594 7.5768 -89.21848 12.48453 8.02232 17.01459
0.33082 0.35459 0.00497 180.43306 0 -6.72146 -2.68213 5.36588 -7.26562 -57.11003 16.03375 24.01873 102.30078 -73.14579 47.67458 121.90237 47.58382 25.76032 -8.88523 68.24012 -15.03632 -52.71492 65.46397 -116.73278 -49.54481 6.77266 68.24836 -5.73251 -16.64919 -79.85533 -3.07122 -2.43975 -16.59051 70.69279 16.11845 7.43917 -89.47196 12.58464 8.09002 17.02902
0.33048 0.35446 0.00565 180.09935 0 -6.97267 -2.66581 5.46635 -7.36083 -57.34453 16.18456 23.98395 102.21915 -72.6585 47.77467 121.78976 46.96373 23.60631 -9.40905 67.95884 -14.70207 -52.02621 66.21458 -116.79087 -47.97902 6.85174 68.19777 -5.52868 -16.89221 -79.75547 -3.11926 -2.47397 -16.47878 70.80743 16.43899 7.28868 -89.71374 12.67747 8.15334 17.04185
0.33012 0.35432 0.0063 179.75528 0 -7.22762 -2.64972 5.56393 -7.44982 -57.61952 16.36394 23.9343 101.96384 -72.15079 47.8609 121.70233 45.42077 21.17054 -10.19809 67.62988 -14.31336 -51.22128 67.10776 -116.85778 -46.10234 6.94638 68.15051 -5.30986 -17.13473 -79.65655 -3.16832 -2.50693 -16.37649 70.92464 16.78443 7.1453 -89.96392 12.78254 8.2289 17.05411
0.32976 0.35421 0.00704 179.41313 0 -7.47457 -2.63695 5.67178 -7.59176 -57.7891 16.46762 23.90496 102.05833 -71.58351 48.00456 121.57454 46.56063 19.0868 -10.32078 67.31086 -13.99404 -50.57061 67.80516 -116.94405 -44.72963 7.02082 68.09871 -5.10771 -17.36984 -79.55236 -3.21953 -2.54313 -16.25034 71.03284 17.09107 6.99269 -90.201 12.86348 8.27906 17.06839
0.32944 0.35419 0.00802 179.08521 0 -7.69466 -2.63089 5.8038 -7.83275 -57.69403 16.3793 23.943 103.20778 -70.90425 48.28885 121.3177 54.79983 18.16229 -8.57365 67.12117 -13.91484 -50.44331 67.85181 -117.04436 -44.9047 7.02635 68.03493 -4.96424 -17.58822 -79.43613 -3.2737 -2.58864 -16.05894 71.11642 17.28017 6.8158 -90.39791 12.88369 8.26446 17.08767
0.32912 0.3542 0.00907 178.76457 0 -7.90725 -2.62769 5.94501 -8.12334 -57.49312 16.21584 24.00152 104.69212 -70.18786 48.62236 121.02387 65.53813 17.65776 -6.18647 66.94823 -13.91049 -50.48121 67.69008 -117.15922 -45.60189 7.01016 67.96588 -4.83993 -17.80049 -79.31514 -3.32942 -2.63696 -15.84521 71.19194 17.42757 6.62796 -90.58029 12.87785 8.22315 17.10876
0.3288 0.35419 0.01007 178.44929 0 -8.12651 -2.62291 6.08123 -8.39878 -57.33522 16.08452 24.04991 105.96483 -69.52297 48.92166 120.75536 74.79006 17.03895 -4.17588 66.75431 -13.86876 -50.43649 67.63188 -117.26763 -46.04673 7.00462 67.89692 -4.70868 -18.01874 -79.19659 -3.38358 -2.68319 -15.64446 71.27333 17.59132 6.4404 -90.76807 12.87817 8.18972 17.12876
